<?xml version="1.0" encoding="utf-8" standalone="no"?>
<!DOCTYPE svg PUBLIC "-//W3C//DTD SVG 1.1//EN"
  "http://www.w3.org/Graphics/SVG/1.1/DTD/svg11.dtd">
<svg xmlns:xlink="http://www.w3.org/1999/xlink" width="432pt" height="432pt" viewBox="0 0 432 432" xmlns="http://www.w3.org/2000/svg" version="1.1">
 <metadata>
  <rdf:RDF xmlns:dc="http://purl.org/dc/elements/1.1/" xmlns:cc="http://creativecommons.org/ns#" xmlns:rdf="http://www.w3.org/1999/02/22-rdf-syntax-ns#">
   <cc:Work>
    <dc:type rdf:resource="http://purl.org/dc/dcmitype/StillImage"/>
    <dc:date>2026-03-05T13:23:19.413013</dc:date>
    <dc:format>image/svg+xml</dc:format>
    <dc:creator>
     <cc:Agent>
      <dc:title>Matplotlib v3.10.6, https://matplotlib.org/</dc:title>
     </cc:Agent>
    </dc:creator>
   </cc:Work>
  </rdf:RDF>
 </metadata>
 <defs>
  <style type="text/css">*{stroke-linejoin: round; stroke-linecap: butt}</style>
 </defs>
 <g id="figure_1">
  <g id="patch_1">
   <path d="M 0 432 
L 432 432 
L 432 0 
L 0 0 
L 0 432 
z
" style="fill: none"/>
  </g>
  <g id="axes_1">
   <g id="patch_2">
    <path d="M 58.181722 198.918842 
C 55.737819 216.308116 57.054119 234.021072 62.041476 250.858109 
C 67.028834 267.695145 75.572059 283.267389 87.092566 296.520216 
C 98.613074 309.773044 112.844782 320.400365 128.823856 327.682448 
C 144.802929 334.964531 162.160311 338.733188 179.72048 338.733188 
C 197.280648 338.733188 214.63803 334.964531 230.617103 327.682448 
C 246.596177 320.400365 260.827885 309.773044 272.348393 296.520216 
C 283.8689 283.267389 292.412125 267.695145 297.399483 250.858109 
C 302.38684 234.021072 303.70314 216.308116 301.259237 198.918842 
" clip-path="url(#p862a605639)" style="fill: none; stroke: #fe5019; stroke-width: 50; stroke-linejoin: miter"/>
   </g>
   <g id="line2d_1">
    <path d="M 179.72048 374.977825 
L 179.72048 40.250947 
" clip-path="url(#p862a605639)" style="fill: none; stroke: #28a8c8; stroke-width: 50"/>
   </g>
   <g id="line2d_2">
    <path d="M 179.72048 374.977825 
L 358.241481 374.977825 
" clip-path="url(#p862a605639)" style="fill: none; stroke: #28a8c8; stroke-width: 50; stroke-linecap: square"/>
   </g>
   <g id="patch_3">
    <path d="M 301.259237 233.081158 
C 303.70314 215.691884 302.38684 197.978928 297.399483 181.141891 
C 292.412125 164.304855 283.8689 148.732611 272.348393 135.479784 
C 260.827885 122.226956 246.596177 111.599635 230.617103 104.317552 
C 214.63803 97.035469 197.280648 93.266812 179.72048 93.266812 
C 162.160311 93.266812 144.802929 97.035469 128.823856 104.317552 
C 112.844782 111.599635 98.613074 122.226956 87.092566 135.479784 
C 75.572059 148.732611 67.028834 164.304855 62.041476 181.141891 
C 57.054119 197.978928 55.737819 215.691884 58.181722 233.081158 
" clip-path="url(#p862a605639)" style="fill: none; stroke: #fe5019; stroke-width: 50; stroke-linejoin: miter"/>
   </g>
  </g>
 </g>
 <defs>
  <clipPath id="p862a605639">
   <rect x="16.736344" y="0" width="398.527312" height="432"/>
  </clipPath>
 </defs>
</svg>
